<svg width="1440" height="147" viewBox="0 0 1440 147" fill="none" xmlns="http://www.w3.org/2000/svg">
<path d="M1472 0H-1.83536C-45.0097 53.0854 -139.23 140.852 10.3965 140.852C-9.10698 92.9086 58.4248 24.8416 121.5 33.3521C208.015 45.0254 105.701 78.3775 180.5 135.91C247.526 187.463 470.912 -7.08732 554.501 33.3521C554.501 33.3521 552.5 30.8507 696.789 135.91C771.798 190.526 794.307 6.67041 895.325 65.0366C1010.85 134.659 1032.42 148.556 1054.93 135.91C1150.87 68.7887 1147.37 31.2676 1273.46 90.4676C1378.89 139.961 1436.49 131.324 1472 101.724V0Z" fill="url(#paint0_linear_15_555)"/>
<defs>
<linearGradient id="paint0_linear_15_555" x1="825.454" y1="222.841" x2="825.808" y2="-0.000226642" gradientUnits="userSpaceOnUse">
<stop stop-color="#F2B7DE" stop-opacity="0.39"/>
<stop offset="1" stop-color="#FF5CC9" stop-opacity="0"/>
</linearGradient>
</defs>
</svg>
