<svg width="1440" height="176" viewBox="0 0 1440 176" fill="none" xmlns="http://www.w3.org/2000/svg">
<path d="M1456 0H-17.731C-60.9023 63.1286 -133.843 176 15.7726 176C-3.72949 118.986 127.221 53.3385 190.291 63.4592C276.801 77.3408 238.87 176 327.879 176C399.087 176 390.918 -14.0901 474.5 34C474.5 34 536.565 36.6873 680.844 161.623C755.848 226.571 778.354 7.93239 879.365 77.3408C994.878 160.135 1016.45 176.661 1038.96 161.623C1093.5 63.4592 1131.39 37.1831 1257.48 107.583C1362.89 166.44 1420.5 156.169 1456 120.969V0Z" fill="url(#paint0_linear_15_556)"/>
<defs>
<linearGradient id="paint0_linear_15_556" x1="809.5" y1="265" x2="810" y2="-6.7358e-06" gradientUnits="userSpaceOnUse">
<stop stop-color="#FFD1B9"/>
<stop offset="1" stop-color="#FFDCD9"/>
</linearGradient>
</defs>
</svg>
